<svg width="699" height="699" viewBox="0 0 699 699" fill="none" xmlns="http://www.w3.org/2000/svg">
<g clip-path="url(#clip0_1040_9196)">
<rect x="0.896362" y="349.5" width="493" height="493" rx="246.5" transform="rotate(-45 0.896362 349.5)" fill="#FFCA95"/>
<mask id="mask0_1040_9196" style="mask-type:alpha" maskUnits="userSpaceOnUse" x="103" y="103" width="493" height="493">
<circle cx="349.5" cy="349.5" r="246.5" transform="rotate(-45 349.5 349.5)" fill="#031849"/>
</mask>
<g mask="url(#mask0_1040_9196)">
<path d="M152.568 536.526L166.703 550.662C172.027 555.986 181.089 551.676 180.318 544.186L180.01 541.192C179.634 537.54 181.792 534.101 185.243 532.851L222.272 519.44C227.742 517.459 229.298 510.465 225.185 506.352C221.132 502.299 222.573 495.42 227.911 493.333L262.626 479.766C267.9 477.705 269.323 470.909 265.319 466.905C261.203 462.789 262.842 455.783 268.355 453.919L297.366 444.111C302.742 442.294 304.339 435.463 300.326 431.45C296.314 427.437 297.911 420.607 303.287 418.789L333.023 408.736C338.203 406.985 339.742 400.403 335.876 396.537C331.862 392.523 333.699 385.669 339.182 384.201L362.157 378.049C367.712 376.562 369.667 369.683 365.724 365.497C362.027 361.57 363.482 355.148 368.511 353.199L401.17 340.542C406.64 338.561 408.196 331.567 404.083 327.454C400.03 323.401 401.471 316.522 406.809 314.435L441.524 300.868C446.798 298.807 448.221 292.011 444.217 288.007C440.101 283.891 441.74 276.885 447.253 275.021L476.264 265.213C481.64 263.396 483.237 256.565 479.224 252.552C475.212 248.539 476.809 241.709 482.185 239.891L511.921 229.838C517.101 228.087 518.64 221.505 514.774 217.639C510.76 213.625 512.597 206.771 518.08 205.303L541.24 199.102C546.619 197.661 548.421 190.938 544.484 187L542.708 185.224C539.639 182.155 540.96 176.922 545.117 175.677C551.516 173.76 550.026 164.306 543.348 164.451L520.61 164.945C515.179 165.064 512.54 171.636 516.382 175.477C519.622 178.718 518.324 184.236 513.978 185.692L483.174 196.006C477.813 197.801 476.211 204.608 480.209 208.606C484.176 212.574 482.634 219.324 477.337 221.175L447.381 231.641C441.974 233.53 440.4 240.42 444.45 244.47C448.442 248.462 446.978 255.245 441.694 257.235L408.953 269.566C403.618 271.576 402.139 278.425 406.171 282.456C410.218 286.503 408.709 293.382 403.34 295.364L371.554 307.096C366.204 309.071 364.7 315.925 368.733 319.957C372.765 323.99 371.262 330.843 365.912 332.818L339.302 339.517C333.827 341.537 332.288 348.552 336.415 352.679C340.323 356.586 338.765 363.238 333.529 365.005L304.253 374.882C298.896 376.689 297.302 383.496 301.3 387.493C305.272 391.466 303.728 398.225 298.424 400.078L268.483 410.539C263.076 412.428 261.502 419.318 265.552 423.368C269.544 427.36 268.08 434.143 262.796 436.133L230.055 448.464C224.72 450.474 223.241 457.323 227.273 461.354C231.32 465.401 229.811 472.28 224.442 474.262L192.656 485.994C187.306 487.969 185.802 494.823 189.835 498.855C193.867 502.888 192.364 509.741 187.014 511.716L155.454 523.364C149.979 525.385 148.441 532.399 152.568 536.526Z" fill="#031849"/>
<path d="M180.852 586.023L194.987 600.159C200.312 605.483 209.373 601.173 208.602 593.683L208.294 590.689C207.918 587.037 210.076 583.598 213.528 582.348L250.557 568.937C256.026 566.956 257.583 559.962 253.469 555.849C249.417 551.796 250.857 544.917 256.195 542.83L290.91 529.263C296.184 527.202 297.607 520.406 293.603 516.402C289.488 512.286 291.126 505.28 296.64 503.416L325.65 493.608C331.026 491.791 332.623 484.96 328.611 480.947C324.598 476.935 326.195 470.104 331.571 468.286L361.308 458.233C366.487 456.482 368.026 449.9 364.16 446.034C360.146 442.02 361.983 435.166 367.467 433.698L390.441 427.546C395.996 426.059 397.951 419.18 394.009 414.994C390.311 411.067 391.766 404.645 396.795 402.696L429.455 390.039C434.924 388.058 436.481 381.064 432.367 376.951C428.315 372.898 429.755 366.019 435.093 363.932L469.808 350.365C475.082 348.304 476.505 341.508 472.501 337.504C468.386 333.388 470.024 326.382 475.538 324.518L504.548 314.71C509.924 312.893 511.521 306.062 507.509 302.049C503.496 298.037 505.093 291.206 510.469 289.388L540.206 279.335C545.385 277.584 546.924 271.002 543.058 267.136C539.044 263.122 540.881 256.268 546.365 254.8L569.524 248.599C574.903 247.159 576.705 240.435 572.768 236.497L570.992 234.721C567.923 231.653 569.244 226.419 573.401 225.174C579.8 223.258 578.31 213.803 571.632 213.948L548.895 214.442C543.463 214.561 540.824 221.133 544.666 224.974C547.907 228.215 546.608 233.733 542.262 235.189L511.459 245.503C506.097 247.298 504.495 254.105 508.493 258.103C512.461 262.071 510.918 268.822 505.621 270.672L475.665 281.138C470.258 283.027 468.684 289.917 472.734 293.967C476.726 297.959 475.262 304.742 469.978 306.732L437.237 319.064C431.902 321.073 430.424 327.922 434.455 331.953C438.502 336.001 436.993 342.879 431.624 344.861L399.838 356.593C394.488 358.568 392.985 365.422 397.017 369.454C401.05 373.487 399.546 380.341 394.196 382.315L367.586 389.014C362.111 391.035 360.573 398.049 364.7 402.176C368.607 406.083 367.049 412.735 361.813 414.502L332.537 424.379C327.18 426.186 325.586 432.993 329.584 436.99C333.557 440.963 332.012 447.722 326.708 449.575L296.767 460.036C291.36 461.925 289.786 468.815 293.836 472.865C297.828 476.857 296.364 483.64 291.08 485.63L258.339 497.962C253.004 499.971 251.526 506.82 255.557 510.851C259.604 514.899 258.095 521.777 252.726 523.759L220.94 535.491C215.59 537.466 214.087 544.32 218.119 548.352C222.152 552.385 220.648 559.239 215.298 561.213L183.739 572.861C178.263 574.882 176.725 581.897 180.852 586.023Z" fill="#031849"/>
<path d="M214.086 630.571L228.221 644.707C233.546 650.031 242.607 645.721 241.836 638.231L241.528 635.237C241.152 631.585 243.31 628.146 246.762 626.896L283.791 613.485C289.26 611.504 290.817 604.51 286.703 600.397C282.651 596.344 284.091 589.465 289.429 587.378L324.144 573.811C329.418 571.75 330.841 564.954 326.837 560.95C322.722 556.834 324.36 549.828 329.874 547.964L358.884 538.156C364.26 536.339 365.857 529.508 361.845 525.495C357.832 521.482 359.429 514.651 364.805 512.834L394.542 502.781C399.721 501.03 401.26 494.448 397.394 490.582C393.38 486.568 395.217 479.714 400.701 478.246L423.675 472.094C429.23 470.607 431.185 463.728 427.243 459.542C423.545 455.615 425 449.193 430.03 447.244L462.689 434.587C468.158 432.606 469.715 425.612 465.601 421.499C461.549 417.446 462.989 410.567 468.327 408.48L503.042 394.913C508.316 392.852 509.739 386.056 505.735 382.052C501.62 377.936 503.258 370.93 508.772 369.066L537.782 359.258C543.158 357.441 544.755 350.61 540.743 346.597C536.73 342.584 538.327 335.753 543.703 333.936L573.44 323.883C578.619 322.132 580.158 315.55 576.292 311.684C572.278 307.67 574.115 300.816 579.599 299.348L602.758 293.147C608.137 291.706 609.939 284.983 606.002 281.045L604.226 279.269C601.157 276.2 602.478 270.967 606.636 269.722C613.035 267.805 611.544 258.351 604.866 258.496L582.129 258.99C576.697 259.108 574.058 265.681 577.9 269.522C581.141 272.763 579.842 278.281 575.496 279.737L544.693 290.051C539.331 291.846 537.729 298.653 541.727 302.651C545.695 306.619 544.152 313.369 538.855 315.22L508.899 325.686C503.493 327.575 501.918 334.465 505.968 338.515C509.96 342.507 508.496 349.29 503.212 351.28L470.471 363.611C465.136 365.621 463.658 372.47 467.689 376.501C471.736 380.548 470.228 387.427 464.858 389.409L433.072 401.141C427.722 403.116 426.219 409.969 430.251 414.002C434.284 418.035 432.781 424.888 427.43 426.863L400.82 433.562C395.345 435.582 393.807 442.597 397.934 446.724C401.841 450.631 400.284 457.283 395.047 459.05L365.771 468.927C360.414 470.734 358.82 477.54 362.818 481.538C366.791 485.511 365.246 492.27 359.943 494.123L330.001 504.584C324.595 506.473 323.02 513.363 327.07 517.413C331.062 521.405 329.598 528.188 324.314 530.178L291.573 542.509C286.238 544.519 284.76 551.368 288.791 555.399C292.838 559.446 291.33 566.325 285.96 568.307L254.174 580.039C248.824 582.014 247.321 588.867 251.353 592.9C255.386 596.933 253.883 603.786 248.532 605.761L216.973 617.409C211.497 619.43 209.959 626.444 214.086 630.571Z" fill="#031849"/>
<path d="M246.613 675.826L260.748 689.962C266.073 695.286 275.134 690.976 274.363 683.486L274.055 680.492C273.679 676.84 275.837 673.401 279.289 672.151L316.317 658.74C321.787 656.759 323.344 649.765 319.23 645.651C315.178 641.599 316.618 634.719 321.956 632.633L356.671 619.066C361.945 617.005 363.368 610.208 359.364 606.205C355.249 602.089 356.887 595.083 362.401 593.219L391.411 583.411C396.787 581.594 398.384 574.763 394.372 570.75C390.359 566.737 391.956 559.906 397.332 558.089L427.069 548.036C432.248 546.285 433.787 539.703 429.921 535.837C425.907 531.823 427.744 524.969 433.228 523.501L456.202 517.349C461.757 515.862 463.712 508.983 459.77 504.797C456.072 500.87 457.527 494.448 462.556 492.499L495.215 479.842C500.685 477.861 502.242 470.867 498.128 466.753C494.076 462.701 495.516 455.821 500.854 453.735L535.569 440.168C540.843 438.107 542.266 431.31 538.262 427.307C534.147 423.191 535.785 416.185 541.299 414.321L570.309 404.513C575.685 402.695 577.282 395.865 573.27 391.852C569.257 387.839 570.854 381.008 576.23 379.191L605.967 369.138C611.146 367.387 612.685 360.805 608.819 356.939C604.805 352.925 606.642 346.071 612.126 344.603L635.285 338.402C640.664 336.961 642.466 330.238 638.529 326.3L636.753 324.524C633.684 321.455 635.005 316.222 639.162 314.977C645.561 313.06 644.071 303.606 637.393 303.751L614.656 304.245C609.224 304.363 606.585 310.936 610.427 314.777C613.668 318.018 612.369 323.536 608.023 324.991L577.22 335.305C571.858 337.101 570.256 343.908 574.254 347.906C578.222 351.874 576.679 358.624 571.382 360.475L541.426 370.941C536.019 372.83 534.445 379.72 538.495 383.77C542.487 387.762 541.023 394.545 535.739 396.535L502.998 408.866C497.663 410.876 496.185 417.725 500.216 421.756C504.263 425.803 502.754 432.682 497.385 434.664L465.599 446.396C460.249 448.37 458.746 455.224 462.778 459.257C466.811 463.289 465.307 470.143 459.957 472.118L433.347 478.816C427.872 480.837 426.334 487.852 430.461 491.978C434.368 495.886 432.81 502.538 427.574 504.305L398.298 514.182C392.941 515.989 391.347 522.795 395.345 526.793C399.318 530.766 397.773 537.525 392.469 539.378L362.528 549.839C357.121 551.728 355.547 558.618 359.597 562.668C363.589 566.66 362.125 573.443 356.841 575.433L324.1 587.764C318.765 589.774 317.287 596.623 321.318 600.654C325.365 604.701 323.856 611.58 318.487 613.562L286.701 625.294C281.351 627.268 279.848 634.122 283.88 638.155C287.913 642.187 286.409 649.041 281.059 651.016L249.5 662.664C244.024 664.685 242.486 671.699 246.613 675.826Z" fill="#031849"/>
<path d="M285.504 714.717L299.639 728.852C304.963 734.177 314.025 729.867 313.254 722.376L312.946 719.382C312.57 715.731 314.728 712.292 318.179 711.041L355.208 697.631C360.678 695.65 362.234 688.656 358.121 684.542C354.068 680.49 355.509 673.61 360.847 671.524L395.562 657.957C400.836 655.896 402.259 649.099 398.255 645.095C394.139 640.98 395.778 633.973 401.292 632.109L430.302 622.302C435.678 620.484 437.275 613.653 433.262 609.641C429.25 605.628 430.847 598.797 436.223 596.98L465.959 586.926C471.139 585.175 472.678 578.594 468.812 574.728C464.798 570.714 466.635 563.86 472.118 562.391L495.093 556.24C500.648 554.752 502.603 547.874 498.66 543.687C494.963 539.76 496.418 533.339 501.447 531.39L534.106 518.733C539.576 516.752 541.132 509.758 537.019 505.644C532.966 501.592 534.407 494.712 539.745 492.626L574.46 479.059C579.734 476.998 581.157 470.201 577.153 466.197C573.037 462.082 574.676 455.075 580.19 453.211L609.2 443.404C614.576 441.586 616.173 434.755 612.16 430.743C608.148 426.73 609.745 419.899 615.121 418.082L644.857 408.028C650.037 406.277 651.576 399.696 647.71 395.83C643.696 391.816 645.533 384.962 651.016 383.493L674.176 377.292C679.555 375.852 681.357 369.128 677.42 365.191L675.644 363.415C672.575 360.346 673.896 355.112 678.053 353.867C684.452 351.951 682.962 342.496 676.284 342.642L653.547 343.136C648.115 343.254 645.476 349.826 649.318 353.668C652.558 356.909 651.26 362.427 646.914 363.882L616.11 374.196C610.749 375.991 609.147 382.799 613.145 386.797C617.112 390.764 615.57 397.515 610.273 399.366L580.317 409.832C574.91 411.721 573.336 418.611 577.386 422.66C581.378 426.653 579.914 433.435 574.63 435.425L541.889 447.757C536.554 449.766 535.076 456.615 539.107 460.647C543.154 464.694 541.645 471.573 536.276 473.555L504.49 485.286C499.14 487.261 497.636 494.115 501.669 498.147C505.702 502.18 504.198 509.034 498.848 511.009L472.238 517.707C466.763 519.728 465.225 526.742 469.351 530.869C473.259 534.777 471.701 541.429 466.465 543.195L437.189 553.072C431.832 554.88 430.238 561.686 434.236 565.684C438.209 569.656 436.664 576.416 431.36 578.269L401.419 588.73C396.012 590.619 394.438 597.509 398.488 601.558C402.48 605.551 401.016 612.333 395.732 614.323L362.991 626.655C357.656 628.664 356.178 635.513 360.209 639.545C364.256 643.592 362.747 650.471 357.378 652.453L325.592 664.184C320.242 666.159 318.738 673.013 322.771 677.045C326.804 681.078 325.3 687.932 319.95 689.907L288.39 701.555C282.915 703.576 281.377 710.59 285.504 714.717Z" fill="#031849"/>
<path d="M120.04 491.271L134.176 505.407C139.5 510.731 148.562 506.421 147.791 498.931L147.483 495.937C147.107 492.285 149.265 488.846 152.716 487.596L189.745 474.185C195.215 472.204 196.771 465.21 192.658 461.097C188.605 457.044 190.046 450.165 195.384 448.079L230.099 434.511C235.372 432.45 236.796 425.654 232.792 421.65C228.676 417.534 230.315 410.528 235.828 408.664L264.839 398.856C270.215 397.039 271.812 390.208 267.799 386.195C263.787 382.183 265.384 375.352 270.76 373.534L300.496 363.481C305.676 361.73 307.215 355.148 303.349 351.282C299.335 347.268 301.172 340.414 306.655 338.946L329.63 332.794C335.185 331.307 337.14 324.428 333.197 320.242C329.5 316.315 330.955 309.893 335.984 307.944L368.643 295.287C374.113 293.306 375.669 286.312 371.556 282.199C367.503 278.146 368.944 271.267 374.282 269.181L408.997 255.613C414.27 253.552 415.694 246.756 411.69 242.752C407.574 238.636 409.213 231.63 414.726 229.766L443.737 219.958C449.113 218.141 450.71 211.31 446.697 207.297C442.685 203.285 444.282 196.454 449.658 194.636L479.394 184.583C484.574 182.832 486.113 176.25 482.247 172.384C478.233 168.37 480.07 161.516 485.553 160.048L508.713 153.847C514.092 152.407 515.894 145.683 511.956 141.745L510.181 139.969C507.112 136.901 508.433 131.667 512.59 130.422C518.989 128.506 517.499 119.051 510.821 119.196L488.083 119.691C482.652 119.809 480.013 126.381 483.854 130.223C487.095 133.463 485.797 138.981 481.45 140.437L450.647 150.751C445.286 152.546 443.684 159.353 447.682 163.352C451.649 167.319 450.107 174.07 444.81 175.92L414.854 186.386C409.447 188.275 407.873 195.165 411.922 199.215C415.915 203.207 414.451 209.99 409.167 211.98L376.426 224.312C371.091 226.321 369.612 233.17 373.644 237.201C377.691 241.249 376.182 248.127 370.813 250.109L339.027 261.841C333.677 263.816 332.173 270.67 336.206 274.702C340.238 278.735 338.735 285.589 333.385 287.563L306.775 294.262C301.3 296.283 299.761 303.297 303.888 307.424C307.796 311.331 306.238 317.983 301.002 319.75L271.726 329.627C266.368 331.434 264.775 338.241 268.773 342.239C272.745 346.211 271.201 352.97 265.897 354.823L235.956 365.284C230.549 367.173 228.975 374.063 233.024 378.113C237.017 382.105 235.553 388.888 230.269 390.878L197.528 403.21C192.193 405.219 190.714 412.068 194.746 416.099C198.793 420.147 197.284 427.025 191.915 429.007L160.129 440.739C154.779 442.714 153.275 449.568 157.308 453.6C161.34 457.633 159.837 464.487 154.487 466.461L122.927 478.11C117.452 480.13 115.914 487.145 120.04 491.271Z" fill="#031849"/>
<path d="M52.1584 481.372L66.2939 495.508C71.6183 500.832 80.6796 496.522 79.9087 489.032L79.6005 486.038C79.2246 482.386 81.3825 478.947 84.8342 477.697L121.863 464.286C127.333 462.305 128.889 455.311 124.776 451.197C120.723 447.145 122.164 440.265 127.502 438.179L162.217 424.612C167.49 422.551 168.914 415.754 164.91 411.751C160.794 407.635 162.432 400.629 167.946 398.765L196.957 388.957C202.333 387.139 203.93 380.308 199.917 376.296C195.905 372.283 197.502 365.452 202.878 363.635L232.614 353.582C237.794 351.831 239.333 345.249 235.467 341.383C231.453 337.369 233.29 330.515 238.773 329.047L261.748 322.895C267.303 321.408 269.257 314.529 265.315 310.342C261.617 306.416 263.073 299.994 268.102 298.045L300.761 285.388C306.231 283.407 307.787 276.413 303.674 272.299C299.621 268.247 301.062 261.367 306.4 259.281L341.115 245.714C346.388 243.653 347.812 236.856 343.808 232.853C339.692 228.737 341.33 221.731 346.844 219.867L375.855 210.059C381.231 208.241 382.828 201.41 378.815 197.398C374.803 193.385 376.4 186.554 381.776 184.737L411.512 174.684C416.692 172.933 418.231 166.351 414.365 162.485C410.351 158.471 412.188 151.617 417.671 150.149L440.831 143.947C446.21 142.507 448.012 135.783 444.074 131.846L442.299 130.07C439.23 127.001 440.551 121.768 444.708 120.522C451.107 118.606 449.617 109.152 442.938 109.297L420.201 109.791C414.77 109.909 412.131 116.482 415.972 120.323C419.213 123.564 417.915 129.082 413.568 130.537L382.765 140.851C377.404 142.647 375.801 149.454 379.8 153.452C383.767 157.42 382.225 164.17 376.928 166.021L346.972 176.487C341.565 178.376 339.991 185.266 344.04 189.316C348.033 193.308 346.569 200.091 341.285 202.081L308.544 214.412C303.209 216.422 301.73 223.271 305.762 227.302C309.809 231.349 308.3 238.228 302.931 240.21L271.145 251.942C265.794 253.916 264.291 260.77 268.324 264.803C272.356 268.835 270.853 275.689 265.503 277.664L238.893 284.362C233.418 286.383 231.879 293.397 236.006 297.524C239.914 301.432 238.356 308.084 233.12 309.851L203.844 319.728C198.486 321.535 196.893 328.341 200.891 332.339C204.863 336.312 203.319 343.071 198.015 344.924L168.074 355.385C162.667 357.274 161.093 364.164 165.142 368.214C169.135 372.206 167.671 378.989 162.387 380.979L129.646 393.31C124.311 395.32 122.832 402.169 126.864 406.2C130.911 410.247 129.402 417.126 124.033 419.108L92.2466 430.84C86.8965 432.814 85.3932 439.668 89.4258 443.701C93.4583 447.733 91.955 454.587 86.6049 456.562L55.0452 468.21C49.57 470.231 48.0315 477.245 52.1584 481.372Z" fill="#031849"/>
<path d="M13.2675 442.481L27.403 456.617C32.7274 461.941 41.7887 457.631 41.0178 450.141L40.7096 447.147C40.3338 443.495 42.4916 440.056 45.9434 438.806L82.9723 425.395C88.4419 423.414 89.9983 416.42 85.8848 412.307C81.8323 408.254 83.2729 401.375 88.6108 399.288L123.326 385.721C128.599 383.66 130.023 376.864 126.019 372.86C121.903 368.744 123.542 361.738 129.055 359.874L158.066 350.066C163.442 348.249 165.039 341.418 161.026 337.405C157.014 333.393 158.611 326.562 163.987 324.744L193.723 314.691C198.903 312.94 200.442 306.358 196.576 302.492C192.562 298.478 194.399 291.624 199.882 290.156L222.857 284.004C228.412 282.517 230.367 275.638 226.424 271.452C222.727 267.525 224.182 261.103 229.211 259.154L261.87 246.497C267.34 244.516 268.896 237.522 264.783 233.409C260.73 229.356 262.171 222.477 267.509 220.391L302.224 206.823C307.497 204.762 308.921 197.966 304.917 193.962C300.801 189.846 302.44 182.84 307.953 180.976L336.964 171.168C342.34 169.351 343.937 162.52 339.924 158.507C335.912 154.495 337.509 147.664 342.885 145.846L372.621 135.793C377.801 134.042 379.34 127.46 375.474 123.594C371.46 119.58 373.297 112.726 378.78 111.258L401.94 105.057C407.319 103.617 409.121 96.8928 405.183 92.9552L403.408 91.1794C400.339 88.1106 401.66 82.877 405.817 81.6319C412.216 79.7155 410.726 70.261 404.048 70.4062L381.31 70.9005C375.879 71.0186 373.24 77.591 377.081 81.4325C380.322 84.6734 379.024 90.1914 374.678 91.6467L343.874 101.961C338.513 103.756 336.911 110.563 340.909 114.561C344.876 118.529 343.334 125.28 338.037 127.13L308.081 137.596C302.674 139.485 301.1 146.375 305.149 150.425C309.142 154.417 307.678 161.2 302.394 163.19L269.653 175.522C264.318 177.531 262.839 184.38 266.871 188.411C270.918 192.459 269.409 199.337 264.04 201.319L232.254 213.051C226.904 215.026 225.4 221.88 229.433 225.912C233.465 229.945 231.962 236.799 226.612 238.773L200.002 245.472C194.527 247.493 192.988 254.507 197.115 258.634C201.023 262.541 199.465 269.193 194.229 270.96L164.953 280.837C159.596 282.644 158.002 289.451 162 293.448C165.972 297.421 164.428 304.18 159.124 306.033L129.183 316.494C123.776 318.383 122.202 325.273 126.251 329.323C130.244 333.315 128.78 340.098 123.496 342.088L90.7551 354.42C85.4198 356.429 83.9414 363.278 87.9727 367.309C92.02 371.357 90.5112 378.235 85.1417 380.217L53.3557 391.949C48.0056 393.924 46.5024 400.778 50.5349 404.81C54.5674 408.843 53.0642 415.697 47.7141 417.671L16.1544 429.319C10.6791 431.34 9.14067 438.355 13.2675 442.481Z" fill="#031849"/>
<path d="M-13.6026 391.569L0.532873 405.705C5.85728 411.029 14.9186 406.719 14.1477 399.229L13.8395 396.235C13.4636 392.583 15.6215 389.144 19.0732 387.894L56.1022 374.483C61.5718 372.502 63.1282 365.508 59.0147 361.395C54.9622 357.342 56.4027 350.463 61.7407 348.376L96.4558 334.809C101.729 332.748 103.153 325.952 99.1489 321.948C95.0333 317.832 96.6715 310.826 102.185 308.962L131.196 299.154C136.572 297.337 138.169 290.506 134.156 286.493C130.144 282.48 131.741 275.649 137.117 273.832L166.853 263.779C172.033 262.028 173.572 255.446 169.706 251.58C165.692 247.566 167.529 240.712 173.012 239.244L195.987 233.092C201.542 231.605 203.497 224.726 199.554 220.54C195.856 216.613 197.312 210.191 202.341 208.242L235 195.585C240.47 193.604 242.026 186.61 237.913 182.497C233.86 178.444 235.301 171.565 240.639 169.478L275.354 155.911C280.627 153.85 282.051 147.054 278.047 143.05C273.931 138.934 275.569 131.928 281.083 130.064L310.094 120.256C315.47 118.439 317.067 111.608 313.054 107.595C309.042 103.582 310.639 96.7515 316.015 94.9341L345.751 84.8808C350.931 83.1298 352.47 76.5482 348.604 72.6821C344.59 68.6682 346.427 61.8142 351.91 60.3459L375.07 54.1447C380.449 52.7044 382.251 45.9807 378.313 42.0431L376.538 40.2673C373.469 37.1985 374.79 31.9649 378.947 30.7198C385.346 28.8034 383.856 19.3489 377.177 19.4941L354.44 19.9884C349.009 20.1065 346.37 26.6788 350.211 30.5204C353.452 33.7613 352.154 39.2793 347.807 40.7346L317.004 51.0486C311.643 52.8438 310.04 59.6512 314.039 63.6494C318.006 67.6169 316.464 74.3674 311.167 76.2181L281.211 86.6841C275.804 88.5731 274.23 95.4633 278.279 99.5129C282.272 103.505 280.808 110.288 275.524 112.278L242.783 124.609C237.448 126.619 235.969 133.468 240.001 137.499C244.048 141.546 242.539 148.425 237.17 150.407L205.384 162.139C200.034 164.114 198.53 170.967 202.563 175C206.595 179.033 205.092 185.886 199.742 187.861L173.132 194.56C167.657 196.58 166.118 203.595 170.245 207.722C174.153 211.629 172.595 218.281 167.359 220.048L138.083 229.925C132.725 231.732 131.132 238.538 135.13 242.536C139.102 246.509 137.558 253.268 132.254 255.121L102.313 265.582C96.9061 267.471 95.3317 274.361 99.3814 278.411C103.374 282.403 101.91 289.186 96.626 291.176L63.885 303.507C58.5497 305.517 57.0713 312.366 61.1026 316.397C65.1499 320.444 63.6411 327.323 58.2715 329.305L26.4856 341.037C21.1355 343.012 19.6322 349.865 23.6648 353.898C27.6973 357.931 26.1941 364.784 20.844 366.759L-10.7158 378.407C-16.191 380.428 -17.7295 387.442 -13.6026 391.569Z" fill="#031849"/>
</g>
</g>
<defs>
<clipPath id="clip0_1040_9196">
<rect x="0.896362" y="349.5" width="493" height="493" rx="246.5" transform="rotate(-45 0.896362 349.5)" fill="white"/>
</clipPath>
</defs>
</svg>
